Coordinates
version=1
nRows=24
nColumns=24
inDegrees=yes

Units are S.I. units (second, meters, Newtons, ...)
Angles are in degrees.

endheader
time	pelvis_tilt	pelvis_list	pelvis_rotation	pelvis_tx	pelvis_ty	pelvis_tz	hip_flexion_r	hip_adduction_r	hip_rotation_r	knee_angle_r	ankle_angle_r	subtalar_angle_r	mtp_angle_r	hip_flexion_l	hip_adduction_l	hip_rotation_l	knee_angle_l	ankle_angle_l	subtalar_angle_l	mtp_angle_l	lumbar_extension	lumbar_bending	lumbar_rotation
      4.91000000	     -8.26178176	     -1.77845132	      9.74548848	     -1.70842027	     -0.01984759	     -0.33694568	     31.55071104	     -2.60572722	    -10.61895424	     -9.56309244	     12.46046873	     12.81381209	    -36.01827949	     -4.07837904	     -1.13151402	     18.32202650	    -17.52979017	      5.78657623	      2.87008086	     17.59620181	      4.66234666	     -1.19651036	    -10.00453092
      4.91500000	     -8.48999461	     -1.86070547	      9.84243844	     -1.70178919	     -0.02076333	     -0.33629636	     31.80780660	     -2.62405989	    -11.12782034	    -10.29193336	     12.21912634	     13.07454488	    -35.94936594	     -3.96973362	     -1.29318762	     18.09413336	    -18.00533286	      5.63802613	      3.53449355	     17.78909120	      5.12719232	     -1.13514360	    -10.07129252
      4.92000000	     -8.61828360	     -1.98590597	      9.90650318	     -1.69511437	     -0.02150387	     -0.33559118	     31.93977853	     -2.55703513	    -11.53840434	    -10.96116018	     11.84097167	     13.22930663	    -35.82575328	     -3.97402936	     -1.52290032	     17.84759219	    -18.44871359	      5.38922122	      4.11462584	     18.07481096	      5.49092719	     -1.00563891	    -10.10424259
      4.92500000	     -8.74248157	     -2.15481645	      9.93916738	     -1.68844099	     -0.02216881	     -0.33481288	     32.07240806	     -2.42354993	    -11.88463812	    -11.60394602	     11.36624813	     13.33378882	    -35.63389461	     -3.95747241	     -1.80506459	     17.55006721	    -18.91199333	      5.08280848	      4.73103144	     18.47240582	      5.85722028	     -0.82463594	    -10.11381239
      4.93000000	     -8.86976423	     -2.36819941	      9.94789631	     -1.68180221	     -0.02275549	     -0.33396488	     32.21751088	     -2.22425907	    -12.11953862	    -12.22888180	     10.80890428	     13.37304498	    -35.36323954	     -3.90223769	     -2.13990496	     17.17768492	    -19.40293690	      4.71672441	      5.38221920	     18.99566541	      6.22468469	     -0.59984007	    -10.09411147
      4.93500000	     -8.99313076	     -2.60984174	      9.90704868	     -1.67522462	     -0.02326428	     -0.33305213	     32.37758484	     -1.95442892	    -12.18691774	    -12.85018496	     10.16747076	     13.29496658	    -34.96116575	     -3.81426865	     -2.50684593	     16.69426539	    -19.93089297	      4.26305591	      6.04195620	     19.71573656	      6.57932214	     -0.32972918	    -10.09004121
      4.94000000	     -9.10616279	     -2.91383655	      9.84121351	     -1.66854252	     -0.02363069	     -0.33209733	     32.51050025	     -1.59001124	    -12.16985119	    -13.43107744	      9.56354188	     13.18152327	    -34.68201626	     -3.73123846	     -2.94609811	     16.25077310	    -20.46023561	      3.74006477	      6.72694305	     20.34752812	      6.95670826	      0.01099878	     -9.96731568
      4.94500000	     -9.21016800	     -3.23778803	      9.73686105	     -1.66195601	     -0.02390928	     -0.33107166	     32.65825958	     -1.16256472	    -11.98162416	    -14.03583445	      8.97028155	     12.95628192	    -34.47481117	     -3.60963327	     -3.41051932	     15.69767237	    -21.04927738	      3.15182737	      7.44261527	     21.07390063	      7.30406900	      0.37971010	     -9.85482136
      4.95000000	     -9.29495047	     -3.56833363	      9.60054042	     -1.65544222	     -0.02409330	     -0.33002699	     32.79681113	     -0.68367810	    -11.55587550	    -14.65866169	      8.39640123	     12.60935775	    -34.28759967	     -3.47353231	     -3.88741118	     15.05589191	    -21.66717022	      2.42110348	      8.12561238	     22.07921377	      7.61385626	      0.77470808	     -9.78920345
      4.95500000	     -9.36518970	     -3.92443401	      9.45300612	     -1.64884430	     -0.02415343	     -0.32892840	     32.91149132	     -0.14968264	    -11.14601496	    -15.27594139	      7.94763980	     12.22504800	    -34.30046747	     -3.32718432	     -4.40628329	     14.39034287	    -22.32582961	      1.62637082	      8.91599496	     22.95449363	      7.92626905	      1.18876212	     -9.61946004
      4.96000000	     -9.41887471	     -4.28635108	      9.26463972	     -1.64218325	     -0.02409447	     -0.32781261	     32.98862892	      0.44733569	    -10.51103567	    -15.87239858	      7.56405775	     11.69083448	    -34.53492023	     -3.21838137	     -4.93525779	     13.74416489	    -22.89957082	      0.45054877	      9.43643552	     24.55391997	      8.22935535	      1.62811831	     -9.45764561
      4.96500000	     -9.44717376	     -4.62550519	      9.08783657	     -1.63560276	     -0.02399484	     -0.32668617	     33.05363621	      1.02064012	     -9.96637476	    -16.51863751	      7.35396343	     11.25426210	    -34.83654582	     -3.03591926	     -5.46055220	     12.93900634	    -23.69778419	     -0.42439644	     10.44949727	     25.24427943	      8.48053195	      2.04073162	     -9.29898637
      4.97000000	     -9.45543261	     -4.98463044	      8.87020967	     -1.62892523	     -0.02376910	     -0.32554943	     33.04956942	      1.67831919	     -9.19846194	    -17.09274955	      7.26244253	     10.60812948	    -35.78018962	     -2.90672271	     -6.00616241	     12.19183591	    -24.37148823	     -1.82278856	     10.98912774	     26.92018222	      8.72474218	      2.49400384	     -9.13148506
      4.97500000	     -9.44851183	     -5.31463408	      8.63986710	     -1.62221623	     -0.02351545	     -0.32441384	     33.01886178	      2.31279594	     -8.52341400	    -17.68453231	      7.37032193	     10.09043733	    -36.86763711	     -2.74496071	     -6.53835821	     11.33038380	    -25.16311342	     -3.13953721	     11.76538749	     28.12114959	      8.94977359	      2.92366236	     -8.94287568
      4.98000000	     -9.39559857	     -5.57999362	      8.42167143	     -1.61555291	     -0.02316803	     -0.32329614	     32.90938343	      2.89134045	     -7.84118203	    -18.26508264	      7.67868795	      9.64470618	    -38.25628977	     -2.60901796	     -7.01365210	     10.49263308	    -25.97648021	     -4.63954941	     12.49479784	     29.44296088	      9.09965192	      3.28659342	     -8.78412122
      4.98500000	     -9.38497211	     -5.84204720	      8.22105947	     -1.60893313	     -0.02283744	     -0.32218272	     32.81273660	      3.45393876	     -7.25789805	    -18.77116216	      7.69959316	      9.17732639	    -38.65949592	     -2.34390502	     -7.48587107	      9.66817160	    -26.98403181	     -5.89769335	     13.50637228	     29.77834259	      9.28785700	      3.63524671	     -8.61202318
      4.99000000	     -9.35356864	     -6.09676569	      7.97775991	     -1.60222669	     -0.02244057	     -0.32101930	     32.62205242	      4.06916158	     -6.49779733	    -19.16405567	      7.74717482	      8.55973988	    -39.25701289	     -2.11151680	     -7.95756852	      8.82690374	    -27.95367948	     -7.44080356	     14.24413549	     30.43711290	      9.46299248	      3.98484806	     -8.42686429
      4.99500000	     -9.22733729	     -6.29526011	      7.87351671	     -1.59564180	     -0.02185876	     -0.32007357	     32.29361642	      4.54217043	     -6.01278238	    -19.54544698	      8.36740656	      8.16733073	    -41.24943141	     -1.95070018	     -8.37170907	      8.19315569	    -28.79692502	     -9.64252843	     14.42001154	     32.47619177	      9.51229415	      4.26486088	     -8.36599814
      5.00000000	     -9.22486282	     -6.47521631	      7.65626444	     -1.58902175	     -0.02146494	     -0.31892750	     32.05295751	      5.05702501	     -5.37931097	    -19.83262041	      8.57672624	      7.69852536	    -41.77262440	     -1.60157852	     -8.76061444	      7.45393717	    -29.91898366	    -11.19583523	     15.13231324	     32.51788870	      9.69506338	      4.52006716	     -8.22481658
      5.00500000	     -9.13558166	     -6.68359393	      7.52384422	     -1.58251041	     -0.02089389	     -0.31798390	     31.67660550	      5.53647119	     -4.97391499	    -20.04805131	      9.19831228	      7.41439699	    -43.62356953	     -1.30930395	     -9.17573856	      6.85970476	    -30.95313249	    -13.25422760	     15.30262196	     33.60512260	      9.77197192	      4.81514937	     -8.17386037
      5.01000000	     -9.13282051	     -6.86749963	      7.38550517	     -1.57609134	     -0.02045302	     -0.31708374	     31.36068109	      5.96782137	     -4.61235977	    -20.19524530	      9.41336621	      7.19306930	    -43.75678734	     -0.83943302	     -9.53589502	      6.29234281	    -32.21723104	    -14.90043187	     15.53993480	     33.29003523	      9.93117814	      5.08207223	     -8.11734274
      5.01500000	     -9.16977250	     -7.02698637	      7.17822806	     -1.56973291	     -0.02000814	     -0.31589567	     31.03471004	      6.44962584	     -4.02397873	    -20.23761614	      9.59239483	      6.73203690	    -44.22486820	     -0.33044643	     -9.88662698	      5.73870719	    -33.44957568	    -16.66023805	     15.77533397	     33.22261989	     10.10942271	      5.29310564	     -7.98089216
      5.02000000	     -9.14923310	     -7.24479013	      7.10790667	     -1.56345404	     -0.01951069	     -0.31506407	     30.62446676	      6.85995540	     -3.87191610	    -20.22906316	      9.86388571	      6.62933989	    -44.32606431	      0.21370255	    -10.27567441	      5.33950391	    -34.77222180	    -18.35949214	     15.68060490	     32.89960020	     10.24095173	      5.57759773	     -7.98801890
      5.02500000	     -9.16960427	     -7.45709678	      7.01101569	     -1.55729449	     -0.01903495	     -0.31413272	     30.22628951	      7.28490980	     -3.63181582	    -20.14718208	     10.09613647	      6.44421815	    -44.47403133	      0.83621943	    -10.65207117	      4.96479740	    -36.12195162	    -20.05275622	     15.43537712	     32.54793201	     10.39223632	      5.84032793	     -7.96455810
